PathFileType	4	(X/Y/Z)	c:/Users/goper/Files/vsCode/490R/osim_files/C06/C06_Static_02.trc
DataRate	CameraRate	NumFrames	NumMarkers	Units                	OrigDataRate	OrigDataStartFrame	OrigNumFrames
250.00	250.00	7	36	mm	250.0	856	1368
                Frame#	Time	LPSIS			LASIS			LTH1			LTH2			LTH3			LTH4			LLFE			LMFE			LSH1			LSH2			LSH3			LSH4			LLMAL			LMMAL			LCAL			LMTP5			LTOE			LMTP1			RPSIS			RASIS			RTH1			RTH2			RTH3			RTH4			RLFE			RMFE			RSH1			RSH2			RSH3			RSH4			RLMAL			RMMAL			RCAL			RMTP1			RTOE			RMTP5		
		X1	Y1	Z1	X2	Y2	Z2	X3	Y3	Z3	X4	Y4	Z4	X5	Y5	Z5	X6	Y6	Z6	X7	Y7	Z7	X8	Y8	Z8	X9	Y9	Z9	X10	Y10	Z10	X11	Y11	Z11	X12	Y12	Z12	X13	Y13	Z13	X14	Y14	Z14	X15	Y15	Z15	X16	Y16	Z16	X17	Y17	Z17	X18	Y18	Z18	X19	Y19	Z19	X20	Y20	Z20	X21	Y21	Z21	X22	Y22	Z22	X23	Y23	Z23	X24	Y24	Z24	X25	Y25	Z25	X26	Y26	Z26	X27	Y27	Z27	X28	Y28	Z28	X29	Y29	Z29	X30	Y30	Z30	X31	Y31	Z31	X32	Y32	Z32	X33	Y33	Z33	X34	Y34	Z34	X35	Y35	Z35	X36	Y36	Z36

856	3.42000	-374.24091	1013.45386	462.51593	-204.45741	977.93231	351.94162	-298.87253	793.70355	268.09213	-293.62442	731.52203	259.16782	-224.89098	791.08539	281.21170	-228.75493	730.74042	270.89569	-301.46558	480.61386	268.38263	-309.16571	444.89139	378.73486	-373.56238	376.08145	235.02525	-366.16992	332.87897	230.50789	-309.06921	382.06143	233.09909	-312.06641	338.04449	228.03088	-330.73575	92.03767	237.49901	-322.32535	103.34176	315.12183	-392.39218	65.53425	282.45325	-219.87221	31.93907	202.44153	-166.47762	56.59513	269.04550	-192.18727	37.89608	314.81744	-371.47824	1011.28851	534.13446	-184.71397	972.61658	591.79510	-277.99915	789.76215	689.51825	-270.57196	727.04114	691.73999	-205.56015	790.68756	669.59015	-208.45296	728.04517	675.84766	-290.23840	463.01395	678.50763	-286.09464	460.26282	568.20660	-348.42407	392.62961	709.22833	-346.25342	344.80371	716.01678	-288.20160	385.33301	699.82782	-294.73651	339.68100	706.86823	-323.58496	90.46339	696.12518	-315.78397	105.64957	618.14795	-388.23239	62.24725	656.04120	-184.58981	35.97499	610.46783	-163.80833	54.06292	655.80438	-205.64069	28.13458	723.93286
857	3.42400	-374.24869	1013.44934	462.51886	-204.47328	977.94403	351.94208	-298.85184	793.70911	268.10483	-293.66110	731.50598	259.18008	-224.88583	791.10559	281.21304	-228.75778	730.73572	270.89700	-301.49341	480.61301	268.39084	-309.13565	444.92691	378.73627	-373.55249	376.07535	235.03835	-366.13928	332.82935	230.51997	-309.08334	382.06467	233.09488	-312.03891	338.07465	228.03677	-330.71964	92.04676	237.49858	-322.34796	103.36480	315.14099	-392.38687	65.53853	282.46054	-219.86867	31.94798	202.44501	-167.01028	56.39792	269.64859	-192.21582	37.88555	314.82755	-371.47980	1011.29059	534.14655	-184.71228	972.62561	591.78748	-278.00952	789.76654	689.51123	-270.59882	727.06104	691.72968	-205.53659	790.69977	669.60510	-208.47717	728.04858	675.84247	-290.22833	463.02219	678.51880	-286.08847	460.27847	568.20068	-348.41403	392.64352	709.24426	-346.28436	344.80713	716.03540	-288.19650	385.33710	699.81152	-294.72687	339.68045	706.87701	-323.59988	90.47329	696.11841	-315.78983	105.64151	618.14484	-388.26202	62.24604	656.04681	-184.59567	35.98334	610.47833	-163.80936	54.07007	655.80505	-205.63878	28.15157	723.94574
858	3.42800	-374.25162	1013.46802	462.54553	-204.49968	977.95081	351.95090	-298.86032	793.72754	268.11115	-293.65451	731.52606	259.19031	-224.91927	791.12292	281.19803	-228.75511	730.76331	270.87973	-301.49902	480.64856	268.38403	-309.17953	444.93546	378.74933	-373.55688	376.08438	235.05203	-366.15500	332.87036	230.52179	-309.08401	382.08780	233.10764	-312.05255	338.11075	228.03647	-330.70850	92.06201	237.50644	-322.37262	103.39491	315.16324	-392.40112	65.55624	282.48245	-219.86058	31.97635	202.44902	-167.06622	56.40404	269.66446	-192.22322	37.90729	314.83313	-371.45343	1011.29730	534.16064	-184.69302	972.64020	591.79449	-278.02701	789.79156	689.53455	-270.61407	727.07666	691.72729	-205.55386	790.72992	669.60754	-208.46477	728.09143	675.86023	-290.23981	463.02734	678.53040	-286.07504	460.28235	568.20038	-348.42160	392.64377	709.24951	-346.30713	344.81155	716.05463	-288.21359	385.32803	699.82574	-294.75873	339.67459	706.88080	-323.61975	90.49889	696.13135	-315.76895	105.66090	618.15399	-388.26077	62.25868	656.08594	-184.58833	36.00626	610.47278	-163.80078	54.10319	655.79065	-205.66533	28.15843	723.95398
859	3.43200	-374.22125	1013.45966	462.56808	-204.49268	977.95532	351.94586	-298.86407	793.72595	268.11209	-293.68677	731.53235	259.19498	-224.92928	791.13934	281.20547	-228.77464	730.77203	270.88348	-301.48129	480.66431	268.39667	-309.18625	444.92957	378.75681	-373.56635	376.09720	235.04465	-366.15875	332.88080	230.51198	-309.09067	382.10135	233.10425	-312.05835	338.09534	228.02763	-330.71048	92.08820	237.52011	-322.39819	103.36480	315.15903	-392.43073	65.55795	282.49860	-219.85963	31.97931	202.44490	-166.12177	57.00283	268.79404	-192.24881	37.90055	314.85089	-371.47879	1011.31665	534.16418	-184.71715	972.62268	591.79590	-278.04230	789.78772	689.52484	-270.64661	727.07660	691.74707	-205.56744	790.73212	669.63080	-208.47299	728.07971	675.85016	-290.22748	463.02490	678.53369	-286.07031	460.31339	568.21436	-348.42163	392.64645	709.24579	-346.29669	344.81876	716.05048	-288.21930	385.32507	699.83844	-294.76334	339.67752	706.90387	-323.63892	90.48892	696.13135	-315.76956	105.68261	618.15643	-388.26956	62.22588	656.10205	-184.58824	36.02010	610.48383	-163.79417	54.13051	655.79456	-205.68312	28.16855	723.95496
860	3.43600	-374.19620	1013.46045	462.57565	-204.49852	977.96973	351.95428	-298.88596	793.75983	268.12820	-293.69080	731.54785	259.17731	-224.90112	791.16028	281.23526	-228.77792	730.79236	270.87662	-301.48901	480.68170	268.40775	-309.19916	444.90509	378.75214	-373.54883	376.10648	235.07175	-366.18695	332.95517	230.52605	-309.07864	382.12900	233.12054	-312.08359	338.12225	228.02545	-330.69604	92.11580	237.50343	-322.38272	103.36995	315.17703	-392.42181	65.57207	282.49857	-219.85432	32.01179	202.46732	-167.10619	56.40045	269.73615	-192.25507	37.91388	314.86606	-371.43799	1011.31091	534.19086	-184.72739	972.63525	591.80829	-278.02115	789.80042	689.52533	-270.58990	727.08136	691.74561	-205.56209	790.73724	669.64050	-208.46367	728.11591	675.86566	-290.21631	463.04068	678.53192	-286.05713	460.33185	568.20026	-348.40598	392.65427	709.24890	-346.28790	344.81354	716.02728	-288.19159	385.35226	699.83917	-294.75418	339.67007	706.89984	-323.62891	90.48141	696.14264	-315.77768	105.70345	618.15540	-388.28525	62.24990	656.10278	-184.57167	36.04319	610.48615	-163.80139	54.12510	655.81812	-205.67802	28.16980	723.98169
861	3.44000	-374.20291	1013.44342	462.59561	-204.47824	977.99371	351.93582	-298.91110	793.75220	268.11398	-293.68292	731.57471	259.18912	-224.90001	791.16687	281.20877	-228.76826	730.79846	270.87241	-301.49432	480.68646	268.40613	-309.17462	444.89105	378.75427	-373.55853	376.09683	235.07936	-366.15433	332.90405	230.55713	-309.09229	382.13309	233.12462	-312.05698	338.09891	228.05615	-330.72308	92.13277	237.51779	-322.34027	103.35976	315.15283	-392.42691	65.60799	282.47974	-219.83974	32.01947	202.47179	-166.07436	57.00058	268.84323	-192.22551	37.93750	314.86084	-371.39697	1011.29865	534.19849	-184.68739	972.65540	591.78778	-277.98318	789.80554	689.50708	-270.59183	727.07050	691.73499	-205.52380	790.74860	669.62341	-208.40730	728.12933	675.86554	-290.16678	463.03940	678.51465	-286.04257	460.34927	568.19989	-348.39368	392.67108	709.22919	-346.26819	344.82355	716.03046	-288.16528	385.33582	699.82147	-294.71957	339.68570	706.90515	-323.60440	90.48560	696.14117	-315.77197	105.73139	618.15497	-388.27374	62.27623	656.11963	-184.55751	36.04516	610.48138	-163.77005	54.14715	655.81171	-205.62639	28.19224	723.95410
862	3.44400	-374.21024	1013.44812	462.58606	-204.47801	978.02155	351.92053	-298.90259	793.77759	268.10022	-293.72278	731.56866	259.18088	-224.93097	791.17926	281.19128	-228.78360	730.82593	270.87491	-301.50339	480.70078	268.40854	-309.18448	444.87256	378.76370	-373.55621	376.10620	235.09529	-366.13901	332.90707	230.53239	-309.09500	382.15549	233.13144	-312.04526	338.10669	228.02359	-330.74280	92.15218	237.52327	-322.33383	103.37997	315.13736	-392.41379	65.61662	282.49161	-219.83977	32.02969	202.46010	-167.07616	56.44114	269.71323	-192.19914	37.97559	314.83270	-371.38464	1011.30231	534.22076	-184.66626	972.69049	591.77002	-277.97012	789.81342	689.48602	-270.54443	727.09839	691.70654	-205.48685	790.77374	669.62122	-208.41148	728.15863	675.84369	-290.15097	463.07272	678.49084	-286.05209	460.37497	568.22772	-348.36725	392.66266	709.22864	-346.24484	344.85425	716.01135	-288.13562	385.37277	699.83258	-294.70093	339.69403	706.89569	-323.57489	90.48472	696.11011	-315.77505	105.73196	618.13208	-388.25479	62.30857	656.06494	-184.58812	36.05464	610.47504	-163.77591	54.14234	655.82086	-205.60558	28.23758	723.94446
